<svg width="88" height="23" viewBox="0 0 88 23" fill="none" xmlns="http://www.w3.org/2000/svg">
<path d="M16.27 9.25L12.43 17.35C11.87 18.43 11.17 18.97 10.33 18.97C9.51 18.97 8.82 18.4 8.26 17.26L4.36 9.25V22H0.19V0.64H4.3L10.33 12.97L16.33 0.64H20.44V22H16.27V9.25ZM37.3464 14.35H27.3564C27.3564 15.91 27.5964 17.05 28.0764 17.77C28.5764 18.49 29.5664 18.85 31.0464 18.85C32.0064 18.85 32.7164 18.55 33.1764 17.95C33.6364 17.33 33.8664 16.74 33.8664 16.18H37.3764C37.3764 18.32 36.7964 19.89 35.6364 20.89C34.4964 21.89 32.9764 22.39 31.0764 22.39C29.1964 22.39 27.7364 22.12 26.6964 21.58C24.5564 20.48 23.4864 17.56 23.4864 12.82C23.4864 10 24.0964 7.94 25.3164 6.64C26.5364 5.32 28.3964 4.66 30.8964 4.66C35.2364 4.66 37.4064 7.07 37.4064 11.89C37.4064 12.41 37.3864 13.23 37.3464 14.35ZM27.4464 11.68H33.8664C33.8664 10.36 33.6164 9.4 33.1164 8.8C32.6164 8.2 31.8464 7.9 30.8064 7.9C29.7864 7.9 28.9664 8.21 28.3464 8.83C27.7464 9.43 27.4464 10.38 27.4464 11.68ZM55.822 0.64L49.402 13.24V22H45.262V13.24L38.842 0.64H43.372L47.362 9.25L51.292 0.64H55.822ZM67.3799 14.26V12.7C67.3799 11.22 67.1599 10.09 66.7199 9.31C66.2999 8.53 65.4099 8.14 64.0499 8.14C61.8499 8.14 60.7499 9.62 60.7499 12.58V14.14C60.7499 17.32 61.8499 18.91 64.0499 18.91C65.4699 18.91 66.3999 18.38 66.8399 17.32C67.1999 16.48 67.3799 15.46 67.3799 14.26ZM71.2799 13.36C71.2799 17.06 70.5799 19.54 69.1799 20.8C67.9999 21.88 66.2899 22.42 64.0499 22.42C61.1899 22.42 59.2599 21.58 58.2599 19.9C57.3199 18.36 56.8499 16.18 56.8499 13.36C56.8499 10.72 57.3199 8.65 58.2599 7.15C59.2999 5.47 61.1899 4.63 63.9299 4.63C66.6899 4.63 68.5999 5.37 69.6599 6.85C70.7399 8.31 71.2799 10.48 71.2799 13.36ZM87.209 22H84.299L83.399 19.96L78.599 22.18C77.259 22.18 76.089 21.69 75.089 20.71C74.109 19.71 73.619 18.26 73.619 16.36V4.87H77.519V15.52C77.519 17.42 78.279 18.37 79.799 18.37L83.309 16.48V4.87H87.209V22Z" fill="#2B2B2B"/>
</svg>
